<svg height="480pt" viewBox="0 -36 480 480" width="480pt" xmlns="http://www.w3.org/2000/svg"><path d="m456 320h-8v-8c-.054688-45.480469-34.710938-83.449219-80-87.640625v-24.359375c-.042969-39.746094-32.253906-71.957031-72-72h-112c-39.746094.042969-71.957031 32.253906-72 72v24.359375c-45.289062 4.191406-79.945312 42.160156-80 87.640625v8h-8c-13.226562.066406-23.9335938 10.773438-24 24 0 13.253906 10.746094 24 24 24h56.71875c3.882812 23.085938 23.871094 39.992188 47.28125 39.992188s43.398438-16.90625 47.28125-39.992188h129.4375c3.882812 23.085938 23.871094 39.992188 47.28125 39.992188s43.398438-16.90625 47.28125-39.992188h56.71875c13.253906 0 24-10.746094 24-24-.066406-13.226562-10.773438-23.933594-24-24zm-440 24c-.003906-2.160156.882812-4.222656 2.457031-5.703125 1.457031-1.488281 3.460938-2.316406 5.542969-2.296875h16c4.417969 0 8 3.582031 8 8 .003906 2.160156-.882812 4.222656-2.457031 5.703125-1.457031 1.488281-3.460938 2.316406-5.542969 2.296875h-16c-4.417969 0-8-3.582031-8-8zm112 48c-17.671875 0-32-14.328125-32-32s14.328125-32 32-32 32 14.328125 32 32-14.328125 32-32 32zm224 0c-17.671875 0-32-14.328125-32-32s14.328125-32 32-32 32 14.328125 32 32-14.328125 32-32 32zm47.335938-40c0-.183594-.105469-.351562-.144532-.535156-.4375-2.410156-1.054687-4.78125-1.855468-7.097656-.144532-.414063-.304688-.800782-.457032-1.246094-.851562-2.273438-1.871094-4.480469-3.054687-6.601563-.175781-.304687-.367188-.589843-.542969-.894531-1.273438-2.175781-2.714844-4.25-4.3125-6.199219l-.136719-.152343c-1.617187-1.925782-3.386719-3.714844-5.289062-5.363282-.214844-.191406-.40625-.390625-.621094-.566406-1.871094-1.566406-3.859375-2.988281-5.945313-4.253906-.351562-.21875-.695312-.433594-1.054687-.640625-2.09375-1.210938-4.273437-2.257813-6.523437-3.136719l-1.191407-.441406c-2.34375-.847656-4.75-1.515625-7.199219-1.992188-.320312-.0625-.640624-.09375-.960937-.152344-5.324219-.96875-10.785156-.96875-16.109375 0-.320312.058594-.640625.089844-.960938.152344-2.449218.476563-4.855468 1.144532-7.199218 1.992188l-1.191406.441406c-2.25.878906-4.429688 1.925781-6.523438 3.136719-.359375.207031-.703125.421875-1.054688.640625-2.085937 1.265625-4.074218 2.6875-5.945312 4.253906-.214844.175781-.40625.375-.621094.566406-1.902344 1.648438-3.671875 3.4375-5.289062 5.363282l-.136719.152343c-1.597656 1.949219-3.039063 4.027344-4.3125 6.207031-.175781.296876-.367187.582032-.535156.886719-1.191407 2.117188-2.214844 4.324219-3.0625 6.601563-.152344.414062-.3125.800781-.457031 1.246094-.800782 2.316406-1.421876 4.6875-1.855469 7.097656-.039063.183594-.113281.351562-.144531.535156h-72.648438v-88c0-4.417969-3.582031-8-8-8s-8 3.582031-8 8v88h-40.664062c0-.183594-.105469-.351562-.144532-.535156-.4375-2.410156-1.054687-4.78125-1.855468-7.097656-.144532-.414063-.304688-.800782-.457032-1.246094-.851562-2.273438-1.871094-4.480469-3.054687-6.601563-.175781-.304687-.367188-.589843-.542969-.894531-1.273438-2.175781-2.714844-4.25-4.3125-6.199219l-.136719-.152343c-1.617187-1.925782-3.386719-3.714844-5.289062-5.363282-.214844-.191406-.40625-.390625-.621094-.566406-1.871094-1.566406-3.859375-2.988281-5.945313-4.253906-.351562-.21875-.695312-.433594-1.054687-.640625-2.09375-1.210938-4.273437-2.257813-6.523437-3.136719l-1.191407-.441406c-2.34375-.847656-4.75-1.515625-7.199219-1.992188-.320312-.0625-.640624-.09375-.960937-.152344-5.324219-.96875-10.785156-.96875-16.109375 0-.320312.058594-.640625.089844-.960938.152344-2.449218.476563-4.855468 1.144532-7.199218 1.992188l-1.191406.441406c-2.25.878906-4.429688 1.925781-6.523438 3.136719-.359375.207031-.703125.421875-1.054688.640625-2.085937 1.265625-4.074218 2.6875-5.945312 4.253906-.214844.175781-.40625.375-.621094.566406-1.902344 1.648438-3.671875 3.4375-5.289062 5.363282l-.136719.152343c-1.597656 1.949219-3.039063 4.027344-4.3125 6.207031-.175781.296876-.367187.582032-.535156.886719-1.191407 2.117188-2.214844 4.324219-3.0625 6.601563-.152344.414062-.3125.800781-.457031 1.246094-.800782 2.316406-1.421876 4.6875-1.855469 7.097656-.039063.183594-.113281.351562-.144531.535156h-18.007813c.21875-.699219.402344-1.410156.550781-2.128906.121094-.472656.28125-.925782.367188-1.414063.285156-1.46875.433594-2.960937.441406-4.457031-.011719-1.480469-.160156-2.957031-.449219-4.40625-.078125-.449219-.207031-.875-.320312-1.3125-.230469-.980469-.53125-1.941406-.894531-2.882812-.175782-.453126-.351563-.902344-.550782-1.34375-.433594-.929688-.925781-1.832032-1.472656-2.703126-.207031-.328124-.382812-.679687-.609375-1-.796875-1.136718-1.6875-2.207031-2.664063-3.199218-.167968-.167969-.359374-.296875-.527343-.464844-.847657-.808594-1.75-1.554688-2.703125-2.230469-.367188-.265625-.753906-.488281-1.136719-.730469-.84375-.527343-1.71875-1.003906-2.625-1.421874-.414063-.191407-.800781-.382813-1.246094-.5625-.273437-.101563-.519531-.253907-.800781-.351563v-9.390625c.042969-39.746094 32.253906-71.957031 72-72 4.417969 0 8-3.582031 8-8v-32c.039062-30.910156 25.089844-55.960938 56-56h112c30.910156.039062 55.960938 25.089844 56 56v32c0 4.417969 3.582031 8 8 8 39.746094.042969 71.957031 32.253906 72 72v8h-8c-13.253906 0-24 10.746094-24 24 .011719 1.492188.15625 2.980469.433594 4.449219.09375.496093.253906.964843.375 1.445312.175781.707031.304687 1.425781.542968 2.105469zm56.664062 0h-32c-2.160156.003906-4.222656-.882812-5.703125-2.457031-1.488281-1.457031-2.316406-3.460938-2.296875-5.542969 0-4.417969 3.582031-8 8-8h32c2.160156-.003906 4.222656.882812 5.703125 2.457031 1.488281 1.457031 2.316406 3.460938 2.296875 5.542969 0 4.417969-3.582031 8-8 8zm0 0"/><path d="m144 360c0 8.835938-7.164062 16-16 16s-16-7.164062-16-16 7.164062-16 16-16 16 7.164062 16 16zm0 0"/><path d="m368 360c0 8.835938-7.164062 16-16 16s-16-7.164062-16-16 7.164062-16 16-16 16 7.164062 16 16zm0 0"/><path d="m288 160h-96c-26.5.027344-47.972656 21.5-48 48v24c0 4.417969 3.582031 8 8 8h176c4.417969 0 8-3.582031 8-8v-24c-.027344-26.5-21.5-47.972656-48-48zm-128 48c0-17.671875 14.328125-32 32-32h24v48h-56zm160 16h-88v-48h56c17.671875 0 32 14.328125 32 32zm0 0"/><path d="m408 312c4.417969 0 8-3.582031 8-8v-16c0-4.417969-3.582031-8-8-8s-8 3.582031-8 8v16c0 4.417969 3.582031 8 8 8zm0 0"/><path d="m304 48c13.253906 0 24-10.746094 24-24s-10.746094-24-24-24-24 10.746094-24 24 10.746094 24 24 24zm0-32c4.417969 0 8 3.582031 8 8s-3.582031 8-8 8-8-3.582031-8-8 3.582031-8 8-8zm0 0"/><path d="m456 176c13.253906 0 24-10.746094 24-24s-10.746094-24-24-24-24 10.746094-24 24 10.746094 24 24 24zm0-32c4.417969 0 8 3.582031 8 8s-3.582031 8-8 8-8-3.582031-8-8 3.582031-8 8-8zm0 0"/><path d="m200 56c4.417969 0 8-3.582031 8-8v-8c0-4.417969-3.582031-8-8-8s-8 3.582031-8 8v8c0 4.417969 3.582031 8 8 8zm0 0"/><path d="m176 72h8c4.417969 0 8-3.582031 8-8s-3.582031-8-8-8h-8c-4.417969 0-8 3.582031-8 8s3.582031 8 8 8zm0 0"/><path d="m200 72c-4.417969 0-8 3.582031-8 8v8c0 4.417969 3.582031 8 8 8s8-3.582031 8-8v-8c0-4.417969-3.582031-8-8-8zm0 0"/><path d="m216 72h8c4.417969 0 8-3.582031 8-8s-3.582031-8-8-8h-8c-4.417969 0-8 3.582031-8 8s3.582031 8 8 8zm0 0"/><path d="m384 88c4.417969 0 8-3.582031 8-8v-8c0-4.417969-3.582031-8-8-8s-8 3.582031-8 8v8c0 4.417969 3.582031 8 8 8zm0 0"/><path d="m360 104h8c4.417969 0 8-3.582031 8-8s-3.582031-8-8-8h-8c-4.417969 0-8 3.582031-8 8s3.582031 8 8 8zm0 0"/><path d="m384 104c-4.417969 0-8 3.582031-8 8v8c0 4.417969 3.582031 8 8 8s8-3.582031 8-8v-8c0-4.417969-3.582031-8-8-8zm0 0"/><path d="m400 104h8c4.417969 0 8-3.582031 8-8s-3.582031-8-8-8h-8c-4.417969 0-8 3.582031-8 8s3.582031 8 8 8zm0 0"/><path d="m56 96c4.417969 0 8-3.582031 8-8v-8c0-4.417969-3.582031-8-8-8s-8 3.582031-8 8v8c0 4.417969 3.582031 8 8 8zm0 0"/><path d="m33.375 100.6875c3.140625 3.03125 8.128906 2.988281 11.214844-.097656 3.085937-3.085938 3.128906-8.074219.097656-11.214844l-5.65625-5.65625c-3.136719-3.03125-8.128906-2.988281-11.214844.097656-3.085937 3.085938-3.128906 8.078125-.097656 11.214844zm0 0"/><path d="m24 120h8c4.417969 0 8-3.582031 8-8s-3.582031-8-8-8h-8c-4.417969 0-8 3.582031-8 8s3.582031 8 8 8zm0 0"/><path d="m33.375 123.3125-5.65625 5.65625c-2.078125 2.007812-2.914062 4.980469-2.179688 7.78125.730469 2.796875 2.914063 4.980469 5.710938 5.710938 2.800781.734374 5.773438-.101563 7.78125-2.179688l5.65625-5.65625c3.03125-3.140625 2.988281-8.128906-.097656-11.214844-3.085938-3.085937-8.074219-3.128906-11.214844-.097656zm0 0"/><path d="m56 152c4.417969 0 8-3.582031 8-8v-8c0-4.417969-3.582031-8-8-8s-8 3.582031-8 8v8c0 4.417969 3.582031 8 8 8zm0 0"/><path d="m72.96875 140.28125c3.136719 3.03125 8.128906 2.988281 11.214844-.097656 3.085937-3.085938 3.128906-8.078125.097656-11.214844l-5.65625-5.65625c-3.140625-3.03125-8.128906-2.988281-11.214844.097656-3.085937 3.085938-3.128906 8.074219-.097656 11.214844zm0 0"/><path d="m72 112c0 4.417969 3.582031 8 8 8h8c4.417969 0 8-3.582031 8-8s-3.582031-8-8-8h-8c-4.417969 0-8 3.582031-8 8zm0 0"/><path d="m72.96875 103.03125c2.121094 0 4.15625-.84375 5.65625-2.34375l5.65625-5.65625c3.03125-3.136719 2.988281-8.128906-.097656-11.214844-3.085938-3.085937-8.078125-3.128906-11.214844-.097656l-5.65625 5.65625c-2.289062 2.289062-2.972656 5.730469-1.734375 8.71875s4.15625 4.9375 7.390625 4.9375zm0 0"/></svg>